<?xml version="1.0" standalone="no"?>
<!DOCTYPE svg PUBLIC "-//W3C//DTD SVG 20010904//EN"
 "http://www.w3.org/TR/2001/REC-SVG-20010904/DTD/svg10.dtd">
<svg version="1.0" xmlns="http://www.w3.org/2000/svg"
 width="1000.000000pt" height="1000.000000pt" viewBox="0 0 1000.000000 1000.000000"
 preserveAspectRatio="xMidYMid meet">
<metadata>
Created by potrace 1.15, written by Peter Selinger 2001-2017
</metadata>
<g transform="translate(0.000000,1000.000000) scale(0.100000,-0.100000)"
fill="#000000" stroke="none">
<path d="M4595 9989 c-1132 -91 -2203 -567 -3023 -1342 -917 -867 -1455 -1988
-1562 -3252 -13 -155 -13 -635 0 -790 107 -1264 645 -2385 1562 -3252 827
-782 1893 -1252 3042 -1343 166 -13 606 -13 772 0 1356 107 2589 743 3459
1785 666 798 1056 1755 1145 2810 13 155 13 635 0 790 -107 1264 -645 2385
-1562 3252 -827 781 -1894 1253 -3042 1343 -148 12 -643 11 -791 -1z"/>
</g>
</svg>
